<svg viewBox="253.63871287128714 76.19584 395.3429702970297 489.32015999999993" xmlns="http://www.w3.org/2000/svg" style="max-height: 500px" width="395.3429702970297" height="489.32015999999993"><defs><style>.cls-1{fill:#112131;}.cls-2{font-size:38.54px;font-family:MicrosoftSansSerif, Microsoft Sans Serif;}.cls-2,.cls-3{fill:#122536;}.cls-4{fill:#269dc2;}.cls-5,.cls-6{fill:#102333;}.cls-5{opacity:0.88;}.cls-6{opacity:0.49;}</style></defs><g id="NGC"><path d="M376,385.38V506.91c-5.57,0-11.11-.68-16.43.14-10.2,1.58-16.13-2.74-21.78-11-12.47-18.33-26.12-35.85-39.29-53.7-.42-.57-.86-1.11-2.08-2.67v67h-30.3V385c6.83,0,13.62.45,20.32-.14,6.24-.54,9.82,1.83,13.42,6.86,13.5,18.86,27.56,37.32,41.42,55.92,1.18,1.57,2.47,3.06,4.46,5.53V385.38Z" class="cls-1"/><path d="M505.67,408,482,426.22c-8-10.3-18.3-15-31.22-13.5-9.19,1-16.44,5.45-22,12.66-11.2,14.57-7.63,38.19,7.21,48.55a32.66,32.66,0,0,0,46.56-9.59H454.46V436.93h57v69.69H485.23c-.18-1.51-.37-3-.61-5.12-21.07,10.44-42.11,11.06-62.67-.86a60.42,60.42,0,0,1-28.12-35.24c-9.68-31.09,5.42-65.06,34.36-77.49C459.29,374.56,492.07,387.06,505.67,408Z" class="cls-1"/><path d="M642.7,412.6l-25.15,16.6c-15.75-22.89-40.26-18.4-51.44-7.55-13.37,13-13.27,36.79.37,49.8,14.75,14.06,34,10.86,51.47-8.77l25.38,15.62c-11,22.22-42,35.63-68.49,29.84-28.11-6.15-48.69-30.2-49.68-58.06-1.12-31.42,16.11-56.81,44.05-64.9C597.78,376.89,628.48,388.2,642.7,412.6Z" class="cls-1"/></g><g id="SS"><text transform="translate(294.04 556.55)" class="cls-2">Software Solutions</text></g><g id="N"><rect height="266.56" width="77.27" y="83.38" x="263.31" class="cls-3"/><polyline points="266.56 83.38 342.3 83.38 481.54 349.94 398.92 349.94 266.56 85.14" class="cls-4"/></g><g id="C"><polygon points="579.79 147.88 579.79 180.33 642.52 205 642.52 83.38 426.01 83.38 384.7 124.57 384.7 319.25 399.24 349.94 608.1 349.94 642.52 315.36 642.52 246.97 579.79 247.36 579.79 283.88 448.58 283.88 448.58 148.27 579.79 147.88" class="cls-5"/></g><g id="G"><polygon points="579.41 146.12 642.91 83.38 425.63 83.38 384.32 125.47 384.32 319.55 398.47 349.94 562.96 349.94 563.72 178.86 461.59 178.47 462.35 244.72 498.69 244.72 498.69 284.47 448.2 284.47 448.58 147.68 579.41 146.12" class="cls-6"/><polygon points="498.69 244.72 498.77 286.06 563.34 349.94 563.72 178.86 498.69 244.72" class="cls-4"/><polygon points="563.72 178.95 461.97 177.61 462.74 245.11 499.29 245.11 563.72 178.95" class="cls-3"/></g></svg>