<svg viewBox="107.17128712871288 55.95632 659.6988118811881 466.69952" xmlns="http://www.w3.org/2000/svg" style="max-height: 500px" width="659.6988118811881" height="466.69952"><defs><style>.cls-1{fill:#122536;}.cls-2{fill:#269dc2;}.cls-3,.cls-4{fill:#102333;}.cls-3{opacity:0.88;}.cls-4{opacity:0.49;}</style></defs><g id="N"><rect height="453.64" width="131.5" y="62.5" x="113.68" class="cls-1"/><polyline points="119.22 62.49 248.12 62.49 485.08 516.14 344.46 516.14 119.22 65.48" class="cls-2"/></g><g id="C"><polygon points="652.28 172.27 652.28 227.49 759.05 269.48 759.05 62.49 390.58 62.49 320.27 132.59 320.27 463.9 345.01 516.14 700.46 516.14 759.05 457.28 759.05 340.9 652.28 341.56 652.28 403.72 428.99 403.72 428.99 172.93 652.28 172.27" class="cls-3"/></g><g id="G"><polygon points="651.63 169.27 759.7 62.49 389.93 62.49 319.62 134.12 319.62 464.41 343.71 516.14 623.64 516.14 624.94 224.98 451.12 224.32 452.42 337.07 514.27 337.07 514.27 404.72 428.34 404.72 428.99 171.93 651.63 169.27" class="cls-4"/><polygon points="514.27 337.07 514.4 407.42 624.29 516.14 624.94 224.98 514.27 337.07" class="cls-2"/><polygon points="624.94 225.14 451.77 222.86 453.08 337.73 515.28 337.73 624.94 225.14" class="cls-1"/></g></svg>